<svg width="10" height="11" viewBox="0 0 10 11" fill="none" xmlns="http://www.w3.org/2000/svg">
<path fill-rule="evenodd" clip-rule="evenodd" d="M6.48304 2.10829C6.14427 2.52995 5.57537 2.8462 5.12154 2.8462C5.0704 2.8462 5.01926 2.83961 4.9873 2.83302C4.98091 2.80667 4.96813 2.72761 4.96813 2.64854C4.96813 2.10829 5.2302 1.58122 5.51784 1.2452C5.88219 0.803778 6.48944 0.474355 6.99441 0.45459C7.00719 0.513886 7.01358 0.586359 7.01358 0.658832C7.01358 1.1925 6.78986 1.72616 6.48304 2.10829ZM4.26008 10.6218C4.03229 10.7227 3.81642 10.8182 3.52353 10.8182C2.89711 10.8182 2.46245 10.2253 1.96387 9.50054C1.38219 8.64404 0.90918 7.31976 0.90918 6.06795C0.90918 4.05189 2.1812 2.98456 3.43404 2.98456C3.79971 2.98456 4.13383 3.12276 4.43092 3.24565C4.66874 3.34401 4.88284 3.43257 5.0704 3.43257C5.23309 3.43257 5.43584 3.34999 5.67214 3.25374C6.0022 3.1193 6.39772 2.9582 6.841 2.9582C7.12225 2.9582 8.15137 2.98456 8.82893 3.986C8.82504 3.98911 8.81676 3.99475 8.80469 4.00296C8.63798 4.1164 7.74867 4.72151 7.74867 5.96254C7.74867 7.49765 9.04626 8.04449 9.091 8.05766C9.08985 8.06062 9.08721 8.06906 9.083 8.08249C9.04034 8.21857 8.83699 8.86727 8.40066 9.52689C7.97239 10.1594 7.51856 10.805 6.841 10.805C6.50705 10.805 6.29426 10.7079 6.07455 10.6076C5.84008 10.5006 5.59774 10.39 5.19185 10.39C4.78378 10.39 4.5145 10.5092 4.26008 10.6218Z" fill="black"/>
</svg>
