<svg width="99" height="56" viewBox="0 0 99 56" fill="none" xmlns="http://www.w3.org/2000/svg">
<g filter="url(#filter0_d_1_17115)">
<rect x="15" y="15" width="67" height="24" rx="6" fill="white" shape-rendering="crispEdges"/>
<path d="M25.2674 26.668H29.7074V27.436H25.2674V26.668ZM25.3634 31H24.4754V22.6H30.2354V23.368H25.3634V31ZM31.8892 31V24.7H32.7412V31H31.8892ZM32.3212 23.308C32.1452 23.308 31.9972 23.248 31.8772 23.128C31.7572 23.008 31.6972 22.864 31.6972 22.696C31.6972 22.528 31.7572 22.388 31.8772 22.276C31.9972 22.156 32.1452 22.096 32.3212 22.096C32.4972 22.096 32.6452 22.152 32.7652 22.264C32.8852 22.376 32.9452 22.516 32.9452 22.684C32.9452 22.86 32.8852 23.008 32.7652 23.128C32.6532 23.248 32.5052 23.308 32.3212 23.308ZM35.1118 31V22.096H35.9638V31H35.1118ZM40.3616 31.06C39.7696 31.06 39.3136 30.9 38.9936 30.58C38.6736 30.26 38.5136 29.808 38.5136 29.224V23.308H39.3656V29.176C39.3656 29.544 39.4576 29.828 39.6416 30.028C39.8336 30.228 40.1056 30.328 40.4576 30.328C40.8336 30.328 41.1456 30.22 41.3936 30.004L41.6936 30.616C41.5256 30.768 41.3216 30.88 41.0816 30.952C40.8496 31.024 40.6096 31.06 40.3616 31.06ZM37.3856 25.408V24.7H41.2856V25.408H37.3856ZM45.698 31.06C45.042 31.06 44.466 30.924 43.97 30.652C43.474 30.372 43.086 29.992 42.806 29.512C42.526 29.024 42.386 28.468 42.386 27.844C42.386 27.22 42.518 26.668 42.782 26.188C43.054 25.708 43.422 25.332 43.886 25.06C44.358 24.78 44.886 24.64 45.47 24.64C46.062 24.64 46.586 24.776 47.042 25.048C47.506 25.312 47.87 25.688 48.134 26.176C48.398 26.656 48.53 27.212 48.53 27.844C48.53 27.884 48.526 27.928 48.518 27.976C48.518 28.016 48.518 28.06 48.518 28.108H43.034V27.472H48.062L47.726 27.724C47.726 27.268 47.626 26.864 47.426 26.512C47.234 26.152 46.97 25.872 46.634 25.672C46.298 25.472 45.91 25.372 45.47 25.372C45.038 25.372 44.65 25.472 44.306 25.672C43.962 25.872 43.694 26.152 43.502 26.512C43.31 26.872 43.214 27.284 43.214 27.748V27.88C43.214 28.36 43.318 28.784 43.526 29.152C43.742 29.512 44.038 29.796 44.414 30.004C44.798 30.204 45.234 30.304 45.722 30.304C46.106 30.304 46.462 30.236 46.79 30.1C47.126 29.964 47.414 29.756 47.654 29.476L48.134 30.028C47.854 30.364 47.502 30.62 47.078 30.796C46.662 30.972 46.202 31.06 45.698 31.06ZM50.2642 31V24.7H51.0802V26.416L50.9962 26.116C51.1722 25.636 51.4682 25.272 51.8842 25.024C52.3002 24.768 52.8162 24.64 53.4322 24.64V25.468C53.4002 25.468 53.3682 25.468 53.3362 25.468C53.3042 25.46 53.2722 25.456 53.2402 25.456C52.5762 25.456 52.0562 25.66 51.6802 26.068C51.3042 26.468 51.1162 27.04 51.1162 27.784V31H50.2642Z" fill="black"/>
<path d="M72.6666 21H59.3333L64.6666 27.3067V31.6667L67.3333 33V30.1533V27.3067L72.6666 21Z" stroke="#232327" stroke-width="2" stroke-linecap="round" stroke-linejoin="round"/>
<path d="M67.3334 27H64.6667V30.9111L67.3334 32.3333V27Z" fill="#232327"/>
</g>
<defs>
<filter id="filter0_d_1_17115" x="0" y="0" width="99" height="56" filterUnits="userSpaceOnUse" color-interpolation-filters="sRGB">
<feFlood flood-opacity="0" result="BackgroundImageFix"/>
<feColorMatrix in="SourceAlpha" type="matrix" values="0 0 0 0 0 0 0 0 0 0 0 0 0 0 0 0 0 0 127 0" result="hardAlpha"/>
<feOffset dx="1" dy="1"/>
<feGaussianBlur stdDeviation="8"/>
<feComposite in2="hardAlpha" operator="out"/>
<feColorMatrix type="matrix" values="0 0 0 0 0 0 0 0 0 0 0 0 0 0 0 0 0 0 0.08 0"/>
<feBlend mode="normal" in2="BackgroundImageFix" result="effect1_dropShadow_1_17115"/>
<feBlend mode="normal" in="SourceGraphic" in2="effect1_dropShadow_1_17115" result="shape"/>
</filter>
</defs>
</svg>
