<svg width="153" height="32" viewBox="0 0 153 32" fill="none" xmlns="http://www.w3.org/2000/svg">
<g clip-path="url(#clip0_1_7349)">
<path d="M38.7809 15.5127C38.7809 11.3985 37.1465 7.45275 34.2373 4.54356C31.3281 1.63437 27.3824 5.39515e-07 23.2682 0C19.154 -5.39514e-07 15.2083 1.63437 12.2991 4.54356C9.38986 7.45275 7.75549 11.3985 7.75549 15.5127H12.6033C14.2097 15.5127 15.4625 14.1665 16.0509 12.6717C16.4372 11.6903 17.0234 10.7884 17.7836 10.0281C19.2382 8.57352 21.2111 7.75634 23.2682 7.75634C25.3253 7.75634 27.2982 8.57352 28.7528 10.0281C30.2074 11.4827 31.0245 13.4556 31.0245 15.5127H38.7809Z" fill="url(#paint0_linear_1_7349)"/>
<path d="M29.8445 21.4501C30.6241 19.568 31.0254 17.5508 31.0254 15.5137H38.7809C38.7809 24.0811 31.8356 31.0263 23.2682 31.0263C21.9265 31.0263 20.6245 30.856 19.3829 30.5358C20.0854 30.3548 20.7759 30.1243 21.4491 29.8455C23.3312 29.0659 25.0413 27.9233 26.4818 26.4828C27.9223 25.0423 29.065 23.3322 29.8445 21.4501Z" fill="#4392F9"/>
<path d="M0 15.5117C-2.91433e-07 17.5489 0.401247 19.5661 1.18083 21.4482C1.96042 23.3303 3.10307 25.0404 4.54356 26.4809C5.98404 27.9213 7.69415 29.064 9.57623 29.8436C11.4583 30.6232 13.4755 31.0244 15.5127 31.0244C17.5498 31.0244 19.567 30.6232 21.4491 29.8436C23.3312 29.064 25.0413 27.9213 26.4818 26.4809C27.9223 25.0404 29.0649 23.3303 29.8445 21.4482C30.6241 19.5661 31.0254 17.5489 31.0254 15.5117H26.1776C24.5712 15.5117 23.3184 16.8579 22.73 18.3526C22.7133 18.3952 22.6961 18.4376 22.6786 18.48C22.2888 19.421 21.7175 20.2761 20.9972 20.9963C20.277 21.7165 19.4219 22.2879 18.4809 22.6777C17.5399 23.0675 16.5313 23.2681 15.5127 23.2681C14.4941 23.2681 13.4855 23.0675 12.5445 22.6777C11.6034 22.2879 10.7484 21.7165 10.0281 20.9963C9.30787 20.2761 8.73655 19.421 8.34676 18.48C7.95696 17.5389 7.75634 16.5303 7.75634 15.5117H0Z" fill="url(#paint1_linear_1_7349)"/>
<path d="M0.00158691 15.5127C0.00158691 6.94524 6.94683 0 15.5142 0C16.8556 0 18.1572 0.170246 19.3987 0.490323C16.7348 1.17657 14.2774 2.56535 12.2991 4.54357C9.38992 7.45273 7.75557 11.3985 7.75557 15.5127H0.00158691Z" fill="#F83758"/>
<path d="M55.594 21.7021C54.478 21.7021 53.491 21.5191 52.633 21.1531C51.775 20.7811 51.049 20.2711 50.455 19.6231C49.867 18.9751 49.42 18.2281 49.114 17.3821C48.814 16.5301 48.664 15.6211 48.664 14.6551C48.664 13.6891 48.814 12.7801 49.114 11.9281C49.42 11.0761 49.867 10.3291 50.455 9.68712C51.049 9.03912 51.775 8.53212 52.633 8.16612C53.491 7.80012 54.478 7.61712 55.594 7.61712C56.71 7.61712 57.7 7.80012 58.564 8.16612C59.428 8.53212 60.154 9.03912 60.742 9.68712C61.336 10.3291 61.783 11.0761 62.083 11.9281C62.389 12.7801 62.542 13.6891 62.542 14.6551C62.542 15.6211 62.389 16.5301 62.083 17.3821C61.783 18.2281 61.336 18.9751 60.742 19.6231C60.154 20.2711 59.428 20.7811 58.564 21.1531C57.7 21.5191 56.71 21.7021 55.594 21.7021ZM55.594 20.6671C56.17 20.6671 56.659 20.5411 57.061 20.2891C57.463 20.0311 57.793 19.6891 58.051 19.2631C58.309 18.8371 58.507 18.3631 58.645 17.8411C58.789 17.3131 58.888 16.7731 58.942 16.2211C59.002 15.6691 59.032 15.1471 59.032 14.6551C59.032 14.1631 59.005 13.6471 58.951 13.1071C58.897 12.5611 58.798 12.0271 58.654 11.5051C58.516 10.9831 58.318 10.5121 58.06 10.0921C57.808 9.66612 57.478 9.32712 57.07 9.07512C56.668 8.82312 56.176 8.69712 55.594 8.69712C55.018 8.69712 54.529 8.82312 54.127 9.07512C53.731 9.32712 53.404 9.66612 53.146 10.0921C52.894 10.5121 52.696 10.9831 52.552 11.5051C52.408 12.0271 52.309 12.5611 52.255 13.1071C52.201 13.6471 52.174 14.1631 52.174 14.6551C52.174 15.1471 52.201 15.6691 52.255 16.2211C52.309 16.7731 52.408 17.3131 52.552 17.8411C52.696 18.3631 52.894 18.8371 53.146 19.2631C53.404 19.6891 53.731 20.0311 54.127 20.2891C54.529 20.5411 55.018 20.6671 55.594 20.6671ZM67.7867 21.7021C66.8567 21.7021 66.1457 21.4411 65.6537 20.9191C65.1617 20.3911 64.9157 19.6171 64.9157 18.5971V13.0531L63.5837 12.6931V12.0721H67.6697V17.9851C67.6697 18.8011 67.8167 19.3531 68.1107 19.6411C68.4047 19.9231 68.8337 20.0641 69.3977 20.0641C69.7697 20.0641 70.1237 19.9621 70.4597 19.7581C70.8017 19.5481 71.0657 19.2271 71.2517 18.7951V20.0641C70.8437 20.5441 70.3337 20.9371 69.7217 21.2431C69.1097 21.5491 68.4647 21.7021 67.7867 21.7021ZM70.8557 21.7021V20.3791L70.7657 20.2711V13.0531L69.5147 12.6931V12.0721H73.5287V19.9201L74.8787 20.4151V20.8201L71.2517 21.7021H70.8557ZM79.4707 21.7021C78.5467 21.7021 77.8897 21.5011 77.4997 21.0991C77.1097 20.6971 76.9147 20.0521 76.9147 19.1641V12.9631H75.6547L75.5467 12.4141L79.1377 9.67812L79.6867 9.76812V12.0721H82.4407L82.1797 12.9631H79.6867V18.9841C79.6867 19.9381 80.0587 20.4151 80.8027 20.4151C81.0127 20.4151 81.2107 20.3791 81.3967 20.3071C81.5827 20.2351 81.7537 20.1061 81.9097 19.9201L82.3237 20.4961C82.0117 20.8921 81.6067 21.1921 81.1087 21.3961C80.6107 21.6001 80.0647 21.7021 79.4707 21.7021ZM83.0499 21.5131V20.8831L84.5529 20.5321V12.9091H82.7439L82.9869 12.0721H84.5529C84.5529 11.5261 84.5619 11.0881 84.5799 10.7581C84.5979 10.4221 84.6309 10.1491 84.6789 9.93912C84.7269 9.72912 84.7899 9.53712 84.8679 9.36312C85.1019 8.81712 85.4649 8.34912 85.9569 7.95912C86.4489 7.56912 87.0459 7.26912 87.7479 7.05912C88.4559 6.84912 89.2419 6.74412 90.1059 6.74412C91.3419 6.74412 92.3349 6.94512 93.0849 7.34712C93.8349 7.74312 94.2099 8.27112 94.2099 8.93112C94.2099 9.32712 94.0809 9.64812 93.8229 9.89412C93.5649 10.1341 93.2319 10.2541 92.8239 10.2541C92.0619 10.2541 91.5219 9.81312 91.2039 8.93112C91.0539 8.51712 90.8499 8.20812 90.5919 8.00412C90.3399 7.79412 90.0039 7.68912 89.5839 7.68912C89.0919 7.68912 88.6659 7.78812 88.3059 7.98612C87.9519 8.17812 87.6939 8.46912 87.5319 8.85912C87.4719 8.99712 87.4269 9.16212 87.3969 9.35412C87.3669 9.54612 87.3459 9.80712 87.3339 10.1371C87.3279 10.4611 87.3249 10.9021 87.3249 11.4601V12.0721H89.8089L93.7149 11.7211H94.0929V20.5321L95.5149 20.8831V21.5131H89.8089V20.8831L91.3299 20.5321V13.6561L89.8089 12.9091H87.3249V20.5321L89.1519 20.8831V21.5131H83.0499ZM100.02 21.7021C99.0955 21.7021 98.4385 21.5011 98.0485 21.0991C97.6585 20.6971 97.4635 20.0521 97.4635 19.1641V12.9631H96.2035L96.0955 12.4141L99.6865 9.67812L100.236 9.76812V12.0721H102.99L102.729 12.9631H100.236V18.9841C100.236 19.9381 100.608 20.4151 101.352 20.4151C101.562 20.4151 101.76 20.3791 101.946 20.3071C102.132 20.2351 102.303 20.1061 102.459 19.9201L102.873 20.4961C102.561 20.8921 102.156 21.1921 101.658 21.3961C101.16 21.6001 100.614 21.7021 100.02 21.7021ZM110.772 21.7021C109.656 21.7021 108.669 21.5191 107.811 21.1531C106.953 20.7811 106.227 20.2711 105.633 19.6231C105.045 18.9751 104.598 18.2281 104.292 17.3821C103.992 16.5301 103.842 15.6211 103.842 14.6551C103.842 13.6891 103.992 12.7801 104.292 11.9281C104.598 11.0761 105.045 10.3291 105.633 9.68712C106.227 9.03912 106.953 8.53212 107.811 8.16612C108.669 7.80012 109.656 7.61712 110.772 7.61712C111.888 7.61712 112.878 7.80012 113.742 8.16612C114.606 8.53212 115.332 9.03912 115.92 9.68712C116.514 10.3291 116.961 11.0761 117.261 11.9281C117.567 12.7801 117.72 13.6891 117.72 14.6551C117.72 15.6211 117.567 16.5301 117.261 17.3821C116.961 18.2281 116.514 18.9751 115.92 19.6231C115.332 20.2711 114.606 20.7811 113.742 21.1531C112.878 21.5191 111.888 21.7021 110.772 21.7021ZM110.772 20.6671C111.348 20.6671 111.837 20.5411 112.239 20.2891C112.641 20.0311 112.971 19.6891 113.229 19.2631C113.487 18.8371 113.685 18.3631 113.823 17.8411C113.967 17.3131 114.066 16.7731 114.12 16.2211C114.18 15.6691 114.21 15.1471 114.21 14.6551C114.21 14.1631 114.183 13.6471 114.129 13.1071C114.075 12.5611 113.976 12.0271 113.832 11.5051C113.694 10.9831 113.496 10.5121 113.238 10.0921C112.986 9.66612 112.656 9.32712 112.248 9.07512C111.846 8.82312 111.354 8.69712 110.772 8.69712C110.196 8.69712 109.707 8.82312 109.305 9.07512C108.909 9.32712 108.582 9.66612 108.324 10.0921C108.072 10.5121 107.874 10.9831 107.73 11.5051C107.586 12.0271 107.487 12.5611 107.433 13.1071C107.379 13.6471 107.352 14.1631 107.352 14.6551C107.352 15.1471 107.379 15.6691 107.433 16.2211C107.487 16.7731 107.586 17.3131 107.73 17.8411C107.874 18.3631 108.072 18.8371 108.324 19.2631C108.582 19.6891 108.909 20.0311 109.305 20.2891C109.707 20.5411 110.196 20.6671 110.772 20.6671ZM118.995 21.5131V20.8831L120.336 20.5321V13.6741L118.977 13.1701V12.7471L122.622 11.8921H123.009V13.5211L123.081 13.6021V20.5321L125.421 20.8831V21.5131H118.995ZM122.883 14.8171L122.91 13.6021C123.384 13.0441 123.852 12.6181 124.314 12.3241C124.782 12.0241 125.235 11.8741 125.673 11.8741C126.117 11.8741 126.486 12.0001 126.78 12.2521C127.074 12.5041 127.221 12.8161 127.221 13.1881C127.221 13.5481 127.113 13.8511 126.897 14.0971C126.687 14.3371 126.426 14.4571 126.114 14.4571C125.802 14.4571 125.508 14.3461 125.232 14.1241C125.058 13.9741 124.902 13.8661 124.764 13.8001C124.632 13.7281 124.491 13.6921 124.341 13.6921C124.131 13.6921 123.879 13.8061 123.585 14.0341C123.297 14.2561 123.063 14.5171 122.883 14.8171ZM133.553 21.7021C133.073 21.7021 132.602 21.6301 132.14 21.4861C131.684 21.3361 131.264 21.1321 130.88 20.8741H130.763L129.242 21.5131H128.729V8.49012L127.226 8.01312V7.59912L131.087 6.72612H131.483V13.1611C131.885 12.7651 132.335 12.4561 132.833 12.2341C133.331 12.0061 133.868 11.8921 134.444 11.8921C135.224 11.8921 135.908 12.0841 136.496 12.4681C137.084 12.8461 137.543 13.3741 137.873 14.0521C138.209 14.7241 138.377 15.5071 138.377 16.4011C138.377 17.4031 138.164 18.3061 137.738 19.1101C137.312 19.9081 136.733 20.5411 136.001 21.0091C135.275 21.4711 134.459 21.7021 133.553 21.7021ZM133.193 20.7391C133.631 20.7391 134.012 20.5801 134.336 20.2621C134.666 19.9381 134.921 19.4881 135.101 18.9121C135.281 18.3361 135.371 17.6671 135.371 16.9051C135.371 15.7771 135.182 14.8921 134.804 14.2501C134.426 13.6081 133.895 13.2871 133.211 13.2871C132.857 13.2871 132.533 13.3801 132.239 13.5661C131.945 13.7461 131.693 13.9981 131.483 14.3221V18.4891C131.483 19.1671 131.639 19.7131 131.951 20.1271C132.269 20.5351 132.683 20.7391 133.193 20.7391ZM139.464 21.5131V20.8831L140.985 20.5321V13.6561L139.464 13.1701V12.7471L143.37 11.8921H143.748V20.5321L145.17 20.8831V21.5131H139.464ZM142.335 10.5601C141.843 10.5601 141.465 10.4071 141.201 10.1011C140.937 9.79512 140.805 9.46212 140.805 9.10212C140.805 8.71212 140.94 8.36712 141.21 8.06712C141.486 7.76712 141.861 7.61712 142.335 7.61712C142.821 7.61712 143.205 7.76712 143.487 8.06712C143.775 8.36712 143.919 8.71212 143.919 9.10212C143.919 9.46212 143.784 9.79512 143.514 10.1011C143.25 10.4071 142.857 10.5601 142.335 10.5601ZM149.678 21.7021C148.754 21.7021 148.097 21.5011 147.707 21.0991C147.317 20.6971 147.122 20.0521 147.122 19.1641V12.9631H145.862L145.754 12.4141L149.345 9.67812L149.894 9.76812V12.0721H152.648L152.387 12.9631H149.894V18.9841C149.894 19.9381 150.266 20.4151 151.01 20.4151C151.22 20.4151 151.418 20.3791 151.604 20.3071C151.79 20.2351 151.961 20.1061 152.117 19.9201L152.531 20.4961C152.219 20.8921 151.814 21.1921 151.316 21.3961C150.818 21.6001 150.272 21.7021 149.678 21.7021Z" fill="#4392F9"/>
</g>
<defs>
<linearGradient id="paint0_linear_1_7349" x1="38.7809" y1="7.75634" x2="7.75549" y2="7.75634" gradientUnits="userSpaceOnUse">
<stop stop-color="#CFE2FC"/>
<stop offset="1" stop-color="#4392F9"/>
</linearGradient>
<linearGradient id="paint1_linear_1_7349" x1="1.01712e-06" y1="23.2681" x2="31.0254" y2="23.2681" gradientUnits="userSpaceOnUse">
<stop stop-color="#F8BCC6"/>
<stop offset="1" stop-color="#F83758"/>
</linearGradient>
<clipPath id="clip0_1_7349">
<rect width="152.781" height="31.0263" fill="white"/>
</clipPath>
</defs>
</svg>
