<svg width="93" height="56" viewBox="0 0 93 56" fill="none" xmlns="http://www.w3.org/2000/svg">
<g filter="url(#filter0_d_1_17114)">
<rect x="15" y="15" width="61" height="24" rx="6" fill="white" shape-rendering="crispEdges"/>
<path d="M26.7973 31.072C26.1733 31.072 25.5733 30.972 24.9973 30.772C24.4293 30.564 23.9893 30.3 23.6773 29.98L24.0253 29.296C24.3213 29.584 24.7173 29.828 25.2133 30.028C25.7173 30.22 26.2453 30.316 26.7973 30.316C27.3253 30.316 27.7533 30.252 28.0813 30.124C28.4173 29.988 28.6613 29.808 28.8133 29.584C28.9733 29.36 29.0533 29.112 29.0533 28.84C29.0533 28.512 28.9573 28.248 28.7653 28.048C28.5813 27.848 28.3373 27.692 28.0333 27.58C27.7293 27.46 27.3933 27.356 27.0253 27.268C26.6573 27.18 26.2893 27.088 25.9213 26.992C25.5533 26.888 25.2133 26.752 24.9013 26.584C24.5973 26.416 24.3493 26.196 24.1573 25.924C23.9733 25.644 23.8813 25.28 23.8813 24.832C23.8813 24.416 23.9893 24.036 24.2053 23.692C24.4293 23.34 24.7693 23.06 25.2253 22.852C25.6813 22.636 26.2653 22.528 26.9773 22.528C27.4493 22.528 27.9173 22.596 28.3813 22.732C28.8453 22.86 29.2453 23.04 29.5813 23.272L29.2813 23.98C28.9213 23.74 28.5373 23.564 28.1293 23.452C27.7293 23.34 27.3413 23.284 26.9653 23.284C26.4613 23.284 26.0453 23.352 25.7173 23.488C25.3893 23.624 25.1453 23.808 24.9853 24.04C24.8333 24.264 24.7573 24.52 24.7573 24.808C24.7573 25.136 24.8493 25.4 25.0333 25.6C25.2253 25.8 25.4733 25.956 25.7773 26.068C26.0893 26.18 26.4293 26.28 26.7973 26.368C27.1653 26.456 27.5293 26.552 27.8893 26.656C28.2573 26.76 28.5933 26.896 28.8973 27.064C29.2093 27.224 29.4573 27.44 29.6413 27.712C29.8333 27.984 29.9293 28.34 29.9293 28.78C29.9293 29.188 29.8173 29.568 29.5933 29.92C29.3693 30.264 29.0253 30.544 28.5613 30.76C28.1053 30.968 27.5173 31.072 26.7973 31.072ZM34.2521 31.06C33.6441 31.06 33.0961 30.924 32.6081 30.652C32.1281 30.372 31.7481 29.992 31.4681 29.512C31.1881 29.024 31.0481 28.468 31.0481 27.844C31.0481 27.212 31.1881 26.656 31.4681 26.176C31.7481 25.696 32.1281 25.32 32.6081 25.048C33.0881 24.776 33.6361 24.64 34.2521 24.64C34.8761 24.64 35.4281 24.776 35.9081 25.048C36.3961 25.32 36.7761 25.696 37.0481 26.176C37.3281 26.656 37.4681 27.212 37.4681 27.844C37.4681 28.468 37.3281 29.024 37.0481 29.512C36.7761 29.992 36.3961 30.372 35.9081 30.652C35.4201 30.924 34.8681 31.06 34.2521 31.06ZM34.2521 30.304C34.7081 30.304 35.1121 30.204 35.4641 30.004C35.8161 29.796 36.0921 29.508 36.2921 29.14C36.5001 28.764 36.6041 28.332 36.6041 27.844C36.6041 27.348 36.5001 26.916 36.2921 26.548C36.0921 26.18 35.8161 25.896 35.4641 25.696C35.1121 25.488 34.7121 25.384 34.2641 25.384C33.8161 25.384 33.4161 25.488 33.0641 25.696C32.7121 25.896 32.4321 26.18 32.2241 26.548C32.0161 26.916 31.9121 27.348 31.9121 27.844C31.9121 28.332 32.0161 28.764 32.2241 29.14C32.4321 29.508 32.7121 29.796 33.0641 30.004C33.4161 30.204 33.8121 30.304 34.2521 30.304ZM39.2075 31V24.7H40.0235V26.416L39.9395 26.116C40.1155 25.636 40.4115 25.272 40.8275 25.024C41.2435 24.768 41.7595 24.64 42.3755 24.64V25.468C42.3435 25.468 42.3115 25.468 42.2795 25.468C42.2475 25.46 42.2155 25.456 42.1835 25.456C41.5195 25.456 40.9995 25.66 40.6235 26.068C40.2475 26.468 40.0595 27.04 40.0595 27.784V31H39.2075ZM46.1917 31.06C45.5997 31.06 45.1437 30.9 44.8237 30.58C44.5037 30.26 44.3437 29.808 44.3437 29.224V23.308H45.1957V29.176C45.1957 29.544 45.2877 29.828 45.4717 30.028C45.6637 30.228 45.9357 30.328 46.2877 30.328C46.6637 30.328 46.9757 30.22 47.2237 30.004L47.5237 30.616C47.3557 30.768 47.1517 30.88 46.9117 30.952C46.6797 31.024 46.4397 31.06 46.1917 31.06ZM43.2157 25.408V24.7H47.1157V25.408H43.2157Z" fill="black"/>
<g clip-path="url(#clip0_1_17114)">
<path d="M63.3247 31.0485V25.3839H61.6623V31.0485H59.1688L62.4935 34.2727L65.8182 31.0485H63.3247ZM57.5065 19.7273L54.1818 22.9515H56.6753V28.6162H58.3377V22.9515H60.8312L57.5065 19.7273ZM63.3247 31.0485V25.3839H61.6623V31.0485H59.1688L62.4935 34.2727L65.8182 31.0485H63.3247ZM57.5065 19.7273L54.1818 22.9515H56.6753V28.6162H58.3377V22.9515H60.8312L57.5065 19.7273Z" fill="#232327"/>
</g>
</g>
<defs>
<filter id="filter0_d_1_17114" x="0" y="0" width="93" height="56" filterUnits="userSpaceOnUse" color-interpolation-filters="sRGB">
<feFlood flood-opacity="0" result="BackgroundImageFix"/>
<feColorMatrix in="SourceAlpha" type="matrix" values="0 0 0 0 0 0 0 0 0 0 0 0 0 0 0 0 0 0 127 0" result="hardAlpha"/>
<feOffset dx="1" dy="1"/>
<feGaussianBlur stdDeviation="8"/>
<feComposite in2="hardAlpha" operator="out"/>
<feColorMatrix type="matrix" values="0 0 0 0 0 0 0 0 0 0 0 0 0 0 0 0 0 0 0.08 0"/>
<feBlend mode="normal" in2="BackgroundImageFix" result="effect1_dropShadow_1_17114"/>
<feBlend mode="normal" in="SourceGraphic" in2="effect1_dropShadow_1_17114" result="shape"/>
</filter>
<clipPath id="clip0_1_17114">
<rect width="16" height="16" fill="white" transform="translate(52 19)"/>
</clipPath>
</defs>
</svg>
